<svg width="30" height="30" viewBox="0 0 30 30" fill="none" xmlns="http://www.w3.org/2000/svg">
<path d="M11.1453 15.062C11.9521 16.7281 13.2993 18.0718 14.9674 18.8743C15.0905 18.9326 15.2266 18.9578 15.3624 18.9475C15.4981 18.9372 15.6288 18.8917 15.7417 18.8155L18.1918 17.1789C18.3001 17.1054 18.4251 17.0606 18.5554 17.0486C18.6856 17.0367 18.8168 17.0578 18.9366 17.1103L23.5233 19.0802C23.68 19.1454 23.811 19.2604 23.896 19.4073C23.981 19.5543 24.0153 19.7252 23.9937 19.8936C23.8483 21.0282 23.2945 22.071 22.4358 22.8269C21.5772 23.5827 20.4726 23.9997 19.3287 24C15.7937 24 12.4035 22.5957 9.90387 20.0961C7.40427 17.5965 6 14.2063 6 10.6713C6.00026 9.52743 6.41732 8.4228 7.17314 7.56415C7.92897 6.70551 8.97176 6.15168 10.1064 6.00631C10.2748 5.98468 10.4457 6.01901 10.5926 6.10401C10.7396 6.18901 10.8546 6.31998 10.9198 6.47673L12.8897 11.0732C12.941 11.1911 12.9624 11.3198 12.9521 11.448C12.9419 11.5762 12.9003 11.6999 12.8309 11.8082L11.1943 14.2975C11.1214 14.4101 11.0786 14.5395 11.07 14.6733C11.0615 14.8072 11.0874 14.941 11.1453 15.062Z" stroke="#334752" stroke-width="1.25" stroke-linecap="round" stroke-linejoin="round"/>
</svg>
