<svg width="135" height="18" viewBox="0 0 135 18" fill="none" xmlns="http://www.w3.org/2000/svg">
<path d="M124.975 17.15L128.235 8.55001L125.075 0.950012H127.835L129.935 5.97001L131.775 0.950012H134.335L131.215 9.11001L134.575 17.15H131.815L129.515 11.71L127.515 17.15H124.975Z" fill="white"/>
<path d="M117.44 17.15V0.950012H124.24V3.03001H120.4V7.69001H123.42V9.75001H120.4V15.11H124.28V17.15H117.44Z" fill="white"/>
<path d="M110.467 17.15V3.13001H107.887V0.950012H115.967V3.13001H113.427V17.15H110.467Z" fill="white"/>
<path d="M101.977 17.37C100.83 17.37 99.9172 17.1567 99.2372 16.73C98.5572 16.3034 98.0705 15.69 97.7772 14.89C97.4838 14.09 97.3372 13.1434 97.3372 12.05V5.99002C97.3372 4.89669 97.4838 3.96335 97.7772 3.19002C98.0705 2.40335 98.5572 1.80335 99.2372 1.39002C99.9172 0.976686 100.83 0.77002 101.977 0.77002C103.15 0.77002 104.07 0.976686 104.737 1.39002C105.417 1.80335 105.904 2.40335 106.197 3.19002C106.504 3.96335 106.657 4.89669 106.657 5.99002V12.07C106.657 13.15 106.504 14.09 106.197 14.89C105.904 15.6767 105.417 16.29 104.737 16.73C104.07 17.1567 103.15 17.37 101.977 17.37ZM101.977 15.19C102.47 15.19 102.83 15.0834 103.057 14.87C103.297 14.6567 103.457 14.3634 103.537 13.99C103.617 13.6167 103.657 13.21 103.657 12.77V5.31002C103.657 4.85669 103.617 4.45002 103.537 4.09002C103.457 3.73002 103.297 3.45002 103.057 3.25002C102.83 3.03669 102.47 2.93002 101.977 2.93002C101.51 2.93002 101.157 3.03669 100.917 3.25002C100.677 3.45002 100.517 3.73002 100.437 4.09002C100.357 4.45002 100.317 4.85669 100.317 5.31002V12.77C100.317 13.21 100.35 13.6167 100.417 13.99C100.497 14.3634 100.657 14.6567 100.897 14.87C101.137 15.0834 101.497 15.19 101.977 15.19Z" fill="white"/>
<path d="M87.0303 17.15V0.950012H91.7903C92.7636 0.950012 93.5503 1.13001 94.1503 1.49001C94.7636 1.85001 95.2103 2.37668 95.4903 3.07001C95.7836 3.75001 95.9303 4.57668 95.9303 5.55001C95.9303 6.60335 95.7503 7.45668 95.3903 8.11001C95.0303 8.75001 94.5236 9.21668 93.8703 9.51001C93.2303 9.80335 92.4703 9.95001 91.5903 9.95001H89.9903V17.15H87.0303ZM89.9903 7.87001H91.1103C91.6436 7.87001 92.0569 7.79668 92.3503 7.65001C92.6569 7.49001 92.8636 7.24335 92.9703 6.91001C93.0903 6.56335 93.1503 6.10335 93.1503 5.53001C93.1503 4.94335 93.1036 4.47001 93.0103 4.11001C92.9303 3.73668 92.7436 3.46335 92.4503 3.29001C92.1703 3.11668 91.7236 3.03001 91.1103 3.03001H89.9903V7.87001Z" fill="white"/>
<path d="M80.0566 17.15V3.13001H77.4766V0.950012H85.5566V3.13001H83.0166V17.15H80.0566Z" fill="white"/>
<path d="M67.6562 17.15V0.950012H70.5962V7.75001H71.1963L73.8162 0.950012H76.7562L73.6762 8.59001L76.9962 17.15H73.9962L71.1963 9.69001H70.5962V17.15H67.6562Z" fill="white"/>
<path d="M59.0615 17.15V0.950012H65.8615V3.03001H62.0215V7.69001H65.0415V9.75001H62.0215V15.11H65.9015V17.15H59.0615Z" fill="white"/>
<path d="M45.5391 17.15V15.03C45.9124 15.0433 46.2257 15.0233 46.4791 14.97C46.7457 14.9033 46.9657 14.7633 47.1391 14.55C47.3257 14.3367 47.4791 14.01 47.5991 13.57C47.7191 13.1167 47.8191 12.51 47.8991 11.75C47.9791 10.99 48.0657 10.0233 48.1591 8.85001L48.6791 0.950012H56.5591V17.15H53.6191V3.17001H51.2991L50.9391 9.21001C50.8591 10.3967 50.7657 11.4433 50.6591 12.35C50.5657 13.2567 50.4124 14.03 50.1991 14.67C49.9991 15.2967 49.7124 15.8033 49.3391 16.19C48.9657 16.5767 48.4724 16.85 47.8591 17.01C47.2457 17.1567 46.4724 17.2033 45.5391 17.15Z" fill="white"/>
<path d="M39.8624 17.23C38.7558 17.23 37.8824 17.0367 37.2424 16.65C36.6024 16.2633 36.1491 15.7233 35.8824 15.03C35.6158 14.3233 35.4824 13.5033 35.4824 12.57V11.73H38.3224V12.59C38.3224 13.0433 38.3424 13.4633 38.3824 13.85C38.4358 14.2233 38.5691 14.5233 38.7824 14.75C38.9958 14.9633 39.3491 15.07 39.8424 15.07C40.3491 15.07 40.7158 14.9567 40.9424 14.73C41.1824 14.49 41.3291 14.17 41.3824 13.77C41.4491 13.3567 41.4824 12.9033 41.4824 12.41V9.69H38.7224V8.05H41.4824V5.39001C41.4824 4.80334 41.4358 4.31667 41.3424 3.93001C41.2491 3.54334 41.0824 3.25667 40.8424 3.07C40.6158 2.88334 40.2824 2.79 39.8424 2.79C39.3624 2.79 39.0158 2.91 38.8024 3.15C38.5891 3.37667 38.4558 3.68334 38.4024 4.07C38.3491 4.45667 38.3224 4.89001 38.3224 5.37V6.29H35.4824V5.53C35.4824 4.58334 35.6091 3.74334 35.8624 3.01C36.1158 2.26334 36.5624 1.68334 37.2024 1.27C37.8424 0.843338 38.7291 0.630005 39.8624 0.630005C41.0624 0.630005 41.9958 0.863339 42.6624 1.33001C43.3291 1.78334 43.7958 2.41667 44.0624 3.23C44.3291 4.03 44.4624 4.96334 44.4624 6.03V11.79C44.4624 12.8967 44.3291 13.8633 44.0624 14.69C43.7958 15.5033 43.3291 16.13 42.6624 16.57C41.9958 17.01 41.0624 17.23 39.8624 17.23Z" fill="white"/>
<path d="M22.0098 17.15L22.2898 0.950012H25.3498L27.6498 12.17L30.0498 0.950012H33.0098L33.3098 17.15H31.1098L30.8698 5.89001L28.5698 17.15H26.7898L24.4498 5.85001L24.2298 17.15H22.0098Z" fill="white"/>
<path d="M15.1805 17.37C14.0339 17.37 13.1205 17.1567 12.4405 16.73C11.7605 16.3034 11.2739 15.69 10.9805 14.89C10.6872 14.09 10.5405 13.1434 10.5405 12.05V5.99002C10.5405 4.89669 10.6872 3.96335 10.9805 3.19002C11.2739 2.40335 11.7605 1.80335 12.4405 1.39002C13.1205 0.976686 14.0339 0.77002 15.1805 0.77002C16.3539 0.77002 17.2739 0.976686 17.9405 1.39002C18.6205 1.80335 19.1072 2.40335 19.4005 3.19002C19.7072 3.96335 19.8605 4.89669 19.8605 5.99002V12.07C19.8605 13.15 19.7072 14.09 19.4005 14.89C19.1072 15.6767 18.6205 16.29 17.9405 16.73C17.2739 17.1567 16.3539 17.37 15.1805 17.37ZM15.1805 15.19C15.6739 15.19 16.0339 15.0834 16.2605 14.87C16.5005 14.6567 16.6605 14.3634 16.7405 13.99C16.8205 13.6167 16.8605 13.21 16.8605 12.77V5.31002C16.8605 4.85669 16.8205 4.45002 16.7405 4.09002C16.6605 3.73002 16.5005 3.45002 16.2605 3.25002C16.0339 3.03669 15.6739 2.93002 15.1805 2.93002C14.7139 2.93002 14.3605 3.03669 14.1205 3.25002C13.8805 3.45002 13.7205 3.73002 13.6405 4.09002C13.5605 4.45002 13.5205 4.85669 13.5205 5.31002V12.77C13.5205 13.21 13.5539 13.6167 13.6205 13.99C13.7005 14.3634 13.8605 14.6567 14.1005 14.87C14.3405 15.0834 14.7005 15.19 15.1805 15.19Z" fill="white"/>
<path d="M0 17.15V0.950012H2.94V7.75001H3.54L6.16 0.950012H9.1L6.02 8.59001L9.34 17.15H6.34L3.54 9.69001H2.94V17.15H0Z" fill="white"/>
</svg>
